<?xml version="1.0" encoding="UTF-8" standalone="no"?>
<!-- Created with Inkscape (http://www.inkscape.org/) -->

<svg
   width="105.96776mm"
   height="16.352724mm"
   viewBox="0 0 105.96775 16.352724"
   version="1.1"
   id="svg5"
   xml:space="preserve"
   inkscape:version="1.2.2 (732a01da63, 2022-12-09)"
   sodipodi:docname="logoNav.svg"
   xmlns:inkscape="http://www.inkscape.org/namespaces/inkscape"
   xmlns:sodipodi="http://sodipodi.sourceforge.net/DTD/sodipodi-0.dtd"
   xmlns="http://www.w3.org/2000/svg"
   xmlns:svg="http://www.w3.org/2000/svg"><sodipodi:namedview
     id="namedview7"
     pagecolor="#908e74"
     bordercolor="#000000"
     borderopacity="0.25"
     inkscape:showpageshadow="2"
     inkscape:pageopacity="0.61960784"
     inkscape:pagecheckerboard="0"
     inkscape:deskcolor="#d1d1d1"
     inkscape:document-units="mm"
     showgrid="false"
     showguides="true"
     inkscape:zoom="90.509668"
     inkscape:cx="328.2467"
     inkscape:cy="14.661417"
     inkscape:window-width="1920"
     inkscape:window-height="1017"
     inkscape:window-x="1592"
     inkscape:window-y="-8"
     inkscape:window-maximized="1"
     inkscape:current-layer="layer12-0"><sodipodi:guide
       position="13.212629,13.558062"
       orientation="0,-1"
       id="guide184"
       inkscape:locked="false" /><sodipodi:guide
       position="3.8119314,7.7934173"
       orientation="0,-1"
       id="guide417"
       inkscape:locked="false" /><sodipodi:guide
       position="5.6141274,9.5355687"
       orientation="0,-1"
       id="guide532"
       inkscape:locked="false" /></sodipodi:namedview><defs
     id="defs2"><inkscape:path-effect
       effect="bspline"
       id="path-effect3198"
       is_visible="true"
       lpeversion="1"
       weight="33.333333"
       steps="2"
       helper_size="0"
       apply_no_weight="true"
       apply_with_weight="true"
       only_selected="false" /><inkscape:path-effect
       effect="bspline"
       id="path-effect3114"
       is_visible="true"
       lpeversion="1"
       weight="33.333333"
       steps="2"
       helper_size="0"
       apply_no_weight="true"
       apply_with_weight="true"
       only_selected="false" /><inkscape:path-effect
       effect="bspline"
       id="path-effect3018"
       is_visible="true"
       lpeversion="1"
       weight="33.333333"
       steps="2"
       helper_size="0"
       apply_no_weight="true"
       apply_with_weight="true"
       only_selected="false" /><inkscape:path-effect
       effect="bspline"
       id="path-effect3014"
       is_visible="true"
       lpeversion="1"
       weight="33.333333"
       steps="2"
       helper_size="0"
       apply_no_weight="true"
       apply_with_weight="true"
       only_selected="false" /><inkscape:path-effect
       effect="bspline"
       id="path-effect3007"
       is_visible="true"
       lpeversion="1"
       weight="33.333333"
       steps="2"
       helper_size="0"
       apply_no_weight="true"
       apply_with_weight="true"
       only_selected="false" /><inkscape:path-effect
       effect="bspline"
       id="path-effect2924"
       is_visible="true"
       lpeversion="1"
       weight="33.333333"
       steps="2"
       helper_size="0"
       apply_no_weight="true"
       apply_with_weight="true"
       only_selected="false" /><inkscape:path-effect
       effect="bspline"
       id="path-effect2919"
       is_visible="true"
       lpeversion="1"
       weight="33.333333"
       steps="2"
       helper_size="0"
       apply_no_weight="true"
       apply_with_weight="true"
       only_selected="false" /><inkscape:path-effect
       effect="bspline"
       id="path-effect2913"
       is_visible="true"
       lpeversion="1"
       weight="33.333333"
       steps="2"
       helper_size="0"
       apply_no_weight="true"
       apply_with_weight="true"
       only_selected="false" /><inkscape:path-effect
       effect="bspline"
       id="path-effect2849"
       is_visible="true"
       lpeversion="1"
       weight="33.333333"
       steps="2"
       helper_size="0"
       apply_no_weight="true"
       apply_with_weight="true"
       only_selected="false" /><inkscape:path-effect
       effect="bspline"
       id="path-effect2845"
       is_visible="true"
       lpeversion="1"
       weight="33.333333"
       steps="2"
       helper_size="0"
       apply_no_weight="true"
       apply_with_weight="true"
       only_selected="false" /><inkscape:path-effect
       effect="bspline"
       id="path-effect2754"
       is_visible="true"
       lpeversion="1"
       weight="33.333333"
       steps="2"
       helper_size="0"
       apply_no_weight="true"
       apply_with_weight="true"
       only_selected="false" /><inkscape:path-effect
       effect="bspline"
       id="path-effect2750"
       is_visible="true"
       lpeversion="1"
       weight="33.333333"
       steps="2"
       helper_size="0"
       apply_no_weight="true"
       apply_with_weight="true"
       only_selected="false" /><inkscape:path-effect
       effect="bspline"
       id="path-effect2746"
       is_visible="true"
       lpeversion="1"
       weight="33.333333"
       steps="2"
       helper_size="0"
       apply_no_weight="true"
       apply_with_weight="true"
       only_selected="false" /><inkscape:path-effect
       effect="bspline"
       id="path-effect1710"
       is_visible="true"
       lpeversion="1"
       weight="33.333333"
       steps="2"
       helper_size="0"
       apply_no_weight="true"
       apply_with_weight="true"
       only_selected="false" /><inkscape:path-effect
       effect="bspline"
       id="path-effect1704"
       is_visible="true"
       lpeversion="1"
       weight="33.333333"
       steps="2"
       helper_size="0"
       apply_no_weight="true"
       apply_with_weight="true"
       only_selected="false" /><inkscape:path-effect
       effect="bspline"
       id="path-effect1663"
       is_visible="true"
       lpeversion="1"
       weight="33.333333"
       steps="2"
       helper_size="0"
       apply_no_weight="true"
       apply_with_weight="true"
       only_selected="false" /><inkscape:path-effect
       effect="bspline"
       id="path-effect1659"
       is_visible="true"
       lpeversion="1"
       weight="33.333333"
       steps="2"
       helper_size="0"
       apply_no_weight="true"
       apply_with_weight="true"
       only_selected="false" /><inkscape:path-effect
       effect="bspline"
       id="path-effect1627"
       is_visible="true"
       lpeversion="1"
       weight="33.333333"
       steps="2"
       helper_size="0"
       apply_no_weight="true"
       apply_with_weight="true"
       only_selected="false" /><inkscape:path-effect
       effect="bspline"
       id="path-effect1619"
       is_visible="true"
       lpeversion="1"
       weight="33.333333"
       steps="2"
       helper_size="0"
       apply_no_weight="true"
       apply_with_weight="true"
       only_selected="false" /><inkscape:path-effect
       effect="bspline"
       id="path-effect1127"
       is_visible="true"
       lpeversion="1"
       weight="33.333333"
       steps="2"
       helper_size="0"
       apply_no_weight="true"
       apply_with_weight="true"
       only_selected="false" /><inkscape:path-effect
       effect="bspline"
       id="path-effect1122"
       is_visible="true"
       lpeversion="1"
       weight="33.333333"
       steps="2"
       helper_size="0"
       apply_no_weight="true"
       apply_with_weight="true"
       only_selected="false" /><inkscape:path-effect
       effect="bspline"
       id="path-effect1106"
       is_visible="true"
       lpeversion="1"
       weight="33.333333"
       steps="2"
       helper_size="0"
       apply_no_weight="true"
       apply_with_weight="true"
       only_selected="false" /><inkscape:path-effect
       effect="bspline"
       id="path-effect371"
       is_visible="true"
       lpeversion="1"
       weight="33.333333"
       steps="2"
       helper_size="0"
       apply_no_weight="true"
       apply_with_weight="true"
       only_selected="false" /><inkscape:path-effect
       effect="bspline"
       id="path-effect367"
       is_visible="true"
       lpeversion="1"
       weight="33.333333"
       steps="2"
       helper_size="0"
       apply_no_weight="true"
       apply_with_weight="true"
       only_selected="false" /><inkscape:path-effect
       effect="bspline"
       id="path-effect262"
       is_visible="true"
       lpeversion="1"
       weight="33.333333"
       steps="2"
       helper_size="0"
       apply_no_weight="true"
       apply_with_weight="true"
       only_selected="false" /><inkscape:path-effect
       effect="bspline"
       id="path-effect1663-5"
       is_visible="true"
       lpeversion="1"
       weight="33.333333"
       steps="2"
       helper_size="0"
       apply_no_weight="true"
       apply_with_weight="true"
       only_selected="false" /><inkscape:path-effect
       effect="bspline"
       id="path-effect1710-9"
       is_visible="true"
       lpeversion="1"
       weight="33.333333"
       steps="2"
       helper_size="0"
       apply_no_weight="true"
       apply_with_weight="true"
       only_selected="false" /><inkscape:path-effect
       effect="bspline"
       id="path-effect1627-2"
       is_visible="true"
       lpeversion="1"
       weight="33.333333"
       steps="2"
       helper_size="0"
       apply_no_weight="true"
       apply_with_weight="true"
       only_selected="false" /><inkscape:path-effect
       effect="bspline"
       id="path-effect3018-1"
       is_visible="true"
       lpeversion="1"
       weight="33.333333"
       steps="2"
       helper_size="0"
       apply_no_weight="true"
       apply_with_weight="true"
       only_selected="false" /><inkscape:path-effect
       effect="bspline"
       id="path-effect3007-5"
       is_visible="true"
       lpeversion="1"
       weight="33.333333"
       steps="2"
       helper_size="0"
       apply_no_weight="true"
       apply_with_weight="true"
       only_selected="false" /></defs><g
     inkscape:groupmode="layer"
     id="layer2"
     inkscape:label="Warstwa 2"
     transform="translate(0.00103354,-26.950277)"><path
       style="fill:#ffffff;fill-opacity:1;stroke:none;stroke-width:0.264583"
       d="m 6.1887695,27.946745 c 0,0.971649 0,2.914683 0,3.896877 0,0.982195 0,1.003555 -0.00553,1.059697 -0.00553,0.05614 -0.01655,0.147088 -0.024808,0.296964 -0.00826,0.149876 -0.013761,0.358333 -0.1090409,0.467821 -0.09528,0.109489 -0.2802958,0.119629 -1.3026011,0.119119 -1.0223052,-5.09e-4 -2.8866105,-0.01169 -3.81363885,-0.0178 -0.92702834,-0.0061 -0.92842538,-0.0075 -0.92992885,0.221449 -0.00150348,0.228944 -0.002881491,0.688167 -0.003570116,0.971183 -6.8862443e-4,0.283016 -6.8862443e-4,0.389813 7.708694e-5,0.442631 7.6571138e-4,0.05282 0.002204609,0.05198 1.21933702863,0.05155 1.2171325,-4.31e-4 3.6495628,-4.31e-4 4.8822815,-0.0062 1.2327187,-0.0058 1.265795,-0.01735 1.351776,-0.05283 0.085981,-0.03548 0.2248884,-0.09491 0.3839946,-0.207884 0.1591062,-0.112978 0.3385188,-0.279551 0.474363,-0.440655 0.1358441,-0.161104 0.2281706,-0.316819 0.2943128,-0.437379 0.066142,-0.12056 0.1061061,-0.206 0.1261149,-1.422067 0.020009,-1.216067 0.020009,-3.562821 0.020339,-4.740165 3.304e-4,-1.177344 0.00102,-1.185294 -0.00645,-1.189227 -0.00747,-0.0039 -0.023255,-0.0036 -0.4405981,-0.0031 -0.4173426,4.69e-4 -1.2361751,0.0011 -1.6556097,0.0011 -0.4194346,-1.3e-5 -0.439484,-6.46e-4 -0.4498195,0.0023 -0.010336,0.0029 -0.010677,0.0091 -0.010842,0.01206 -1.646e-4,0.003 -1.62e-4,0.003 -1.62e-4,0.974693 z"
       id="path260"
       inkscape:path-effect="#path-effect262"
       inkscape:original-d="m 6.1887695,26.975096 c 2.645e-4,1.943298 2.645e-4,3.886332 0,5.829101 2.645e-4,0.02162 2.645e-4,0.04298 0,0.06408 -0.010761,0.09122 -0.021783,0.182166 -0.033073,0.272851 -0.00525,0.209038 -0.010751,0.417495 -0.016536,0.626323 -0.1850304,0.01042 -0.3700466,0.02056 -0.5550379,0.03042 -1.8596358,-0.01093 -3.7239413,-0.02208 -5.57688741,-0.03346 -0.0011088,-0.0011 -0.00249147,-0.0025 -0.00413412,-0.0041 -0.00111347,0.459503 -0.002491485,0.918726 -0.00413411,1.377694 2.6458676e-4,0.107063 2.6458676e-4,0.21386 0,0.320392 0.001745674,-5.3e-4 0.0032267,-0.0013 0.00444318,-0.0026 2.43279206,2.64e-4 4.86522236,2.64e-4 7.29743666,0 0.033338,-0.01127 0.06641,-0.02283 0.099219,-0.03464 0.1391785,-0.05916 0.2780869,-0.118578 0.4167333,-0.178266 0.1796838,-0.166314 0.3590959,-0.332888 0.5382472,-0.499729 0.092595,-0.155456 0.1849218,-0.311171 0.2769856,-0.467156 0.040229,-0.08517 0.080191,-0.170611 0.1198894,-0.256315 2.645e-4,-2.346579 2.645e-4,-4.693333 0,-7.040396 9.489e-4,-0.0076 0.00164,-0.01555 0.00206,-0.02377 -0.015645,6.1e-4 -0.03143,9.53e-4 -0.047542,0.001 -0.8185791,8.68e-4 -1.6374116,0.0015 -2.4565144,0.0018 -0.019778,-2.64e-4 -0.039821,-0.0011 -0.060128,-0.0019 -7.99e-5,0.0065 -4.233e-4,0.01267 -0.00103,0.0186 z"
       sodipodi:nodetypes="sccccccccccccccccccccccs" /></g><g
     id="layer3"
     inkscape:label="Warstwa 3"
     style="display:inline;fill:#ffffff;fill-opacity:1;stroke:none"
     transform="matrix(1,0,0,1.0294785,0.04237469,-27.82688)"><path
       id="path365"
       style="fill:#ffffff;fill-opacity:1;stroke:none;stroke-width:0.264583;stroke-opacity:1"
       inkscape:label="path365"
       d="m 10.239685,30.150663 c -0.117904,0.118055 -0.222538,0.284685 -0.3157429,0.49351 -0.093205,0.208825 -0.1757086,0.460925 -0.2315105,0.675928 -0.055802,0.215003 -0.084767,0.392885 -0.099219,0.652673 -0.014452,0.259788 -0.014469,0.601856 -0.014469,0.920874 0,0.319019 9.32e-5,0.615265 0.069763,0.905372 0.06967,0.290105 0.2085284,0.573827 0.3808554,0.792199 0.172327,0.218372 0.377915,0.371275 0.619084,0.486275 0.241167,0.115 0.517991,0.191935 0.821138,0.230477 0.303147,0.03854 0.632857,0.03876 1.195793,0.03876 h 1.825211 c 0.465779,0 0.600539,2.01e-4 0.829924,-0.06253 0.229384,-0.06273 0.553507,-0.18846 0.826306,-0.340031 0.272799,-0.151572 0.494586,-0.329276 0.641305,-0.535884 0.146719,-0.20661 0.218293,-0.442329 0.252697,-0.562757 0.0344,-0.120428 0.03113,-0.125348 -0.279569,-0.128157 -0.310701,-0.0028 -0.929077,-0.0032 -1.237134,-10e-4 -0.308057,0.0022 -0.3058,0.0067 -0.318327,0.05891 -0.01253,0.05219 -0.03936,0.152665 -0.112138,0.230994 -0.07278,0.07833 -0.191444,0.134683 -0.333313,0.166398 -0.141868,0.03171 -0.30713,0.03841 -0.70745,0.04186 -0.400321,0.0034 -1.03545,0.0037 -1.420585,-0.02377 -0.385136,-0.0275 -0.52052,-0.08276 -0.631486,-0.159164 -0.110966,-0.07641 -0.197845,-0.173993 -0.262,-0.290421 -0.06415,-0.116428 -0.105523,-0.251782 -0.117305,-0.366903 -0.01178,-0.115122 0.0063,-0.209972 0.02429,-0.298173 0.01791,-0.0882 0.03568,-0.169909 0.09302,-0.213423 0.05733,-0.04351 0.153973,-0.04893 1.044898,-0.05168 0.644053,-0.002 3.191756,-0.01122 3.427698,-0.01447 0.851476,-0.01169 0.869528,-0.03473 0.878499,-0.181385 0.009,-0.146649 0.009,-0.417027 0.0083,-0.677478 -6.82e-4,-0.26045 -0.0019,-0.510933 -0.04599,-0.747241 -0.04403,-0.236307 -0.131328,-0.45834 -0.24908,-0.642338 -0.346525,-0.394639 -0.906451,-0.819956 -1.40981,-0.89021 -1.451911,-0.108101 -2.837124,-0.171538 -4.223328,0.07494 -0.35626,0.08508 -0.667885,0.22554 -0.930325,0.417845 z m 3.374471,0.73479 c 0.123015,-6.42e-4 0.238738,-8e-6 0.338997,0.0021 0.401038,0.0083 0.558681,0.03858 0.712618,0.113688 0.153937,0.07511 0.305376,0.194809 0.382406,0.315743 0.07706,0.120936 0.07994,0.242909 0.0677,0.311609 -0.01224,0.0687 -0.03938,0.0846 -0.619083,0.0925 -0.579708,0.0079 -1.712144,0.0078 -2.278414,0.0078 v 5.16e-4 c -0.56622,0 -0.566191,-4.7e-4 -0.569991,0 -0.0038,4.7e-4 -0.01172,0.0019 -0.01912,-0.03721 -0.0074,-0.03908 -0.01366,-0.118491 0.02015,-0.22996 0.03381,-0.111469 0.108075,-0.25503 0.217041,-0.35295 0.108966,-0.09792 0.252297,-0.150401 0.646472,-0.183451 0.295631,-0.02477 0.73218,-0.03838 1.101225,-0.04031 z"
       sodipodi:nodetypes="csssssssssssssscccssccssscscccccccccsscssccscsscscs" /></g><g
     id="layer3-1"
     inkscape:label="Warstwa 3"
     style="display:inline;fill:#ffffff;fill-opacity:1;stroke:none"
     transform="matrix(1,0,0,1.0200117,13.94654,-41.116226)"><path
       id="path365-0"
       style="fill:#ffffff;fill-opacity:1;stroke:none;stroke-width:0.264583;stroke-opacity:1"
       inkscape:label="path365"
       d="m 12.091768,43.445975 c -0.117904,0.118055 -0.222538,0.284685 -0.315743,0.49351 -0.09321,0.208825 -0.175708,0.460925 -0.23151,0.675928 -0.0558,0.215003 -0.08477,0.392885 -0.09922,0.652673 -0.01445,0.259788 -0.01447,0.601856 -0.01447,0.920874 0,0.319019 9.3e-5,0.615265 0.06976,0.905372 0.06967,0.290105 0.208528,0.573827 0.380855,0.792199 0.172327,0.218372 0.377915,0.371275 0.619084,0.486275 0.241167,0.115 0.517991,0.191935 0.821138,0.230477 0.303147,0.03854 0.632857,0.03876 1.195793,0.03876 h 1.825211 c 0.465779,0 0.600539,2.01e-4 0.829924,-0.06253 0.229384,-0.06273 0.553507,-0.18846 0.826306,-0.340031 0.272799,-0.151572 0.494586,-0.329276 0.641305,-0.535884 0.146719,-0.20661 0.218293,-0.442329 0.252697,-0.562757 0.0344,-0.120428 0.03113,-0.125348 -0.279569,-0.128157 -0.310701,-0.0028 -0.929077,-0.0032 -1.237134,-10e-4 -0.308057,0.0022 -0.3058,0.0067 -0.318327,0.05891 -0.01253,0.05219 -0.03936,0.152665 -0.112138,0.230994 -0.07278,0.07833 -0.191444,0.134683 -0.333313,0.166398 -0.141868,0.03171 -0.30713,0.03841 -0.70745,0.04186 -0.400321,0.0034 -1.03545,0.0037 -1.420585,-0.02377 -0.385136,-0.0275 -0.52052,-0.08276 -0.631486,-0.159164 -0.110966,-0.07641 -0.197845,-0.173993 -0.262,-0.290421 -0.06415,-0.116428 -0.105523,-0.251782 -0.117305,-0.366903 -0.01178,-0.115122 0.0063,-0.209972 0.02429,-0.298173 0.01791,-0.0882 0.03568,-0.169909 0.09302,-0.213423 0.05733,-0.04351 0.153973,-0.04893 1.044898,-0.05168 0.644053,-0.002 3.191756,-0.01122 3.427698,-0.01447 0.851476,-0.01169 0.869528,-0.03473 0.878499,-0.181385 0.009,-0.146649 0.009,-0.417027 0.0083,-0.677478 -6.82e-4,-0.26045 -0.0019,-0.510933 -0.04599,-0.747241 -0.04403,-0.236307 -0.131328,-0.45834 -0.24908,-0.642338 -0.346525,-0.394639 -0.906451,-0.819956 -1.40981,-0.89021 -1.451911,-0.108101 -2.837124,-0.171538 -4.223328,0.07494 -0.35626,0.08508 -0.667885,0.22554 -0.930325,0.417845 z m 3.374471,0.73479 c 0.123015,-6.42e-4 0.238738,-8e-6 0.338997,0.0021 0.401038,0.0083 0.558681,0.03858 0.712618,0.113688 0.153937,0.07511 0.305376,0.194809 0.382406,0.315743 0.07706,0.120936 0.07994,0.242909 0.0677,0.311609 -0.01224,0.0687 -0.03938,0.0846 -0.619083,0.0925 -0.579708,0.0079 -1.712144,0.0078 -2.278414,0.0078 v 5.16e-4 c -0.56622,0 -0.566191,-4.7e-4 -0.569991,0 -0.0038,4.7e-4 -0.01172,0.0019 -0.01912,-0.03721 -0.0074,-0.03908 -0.01366,-0.118491 0.02015,-0.22996 0.03381,-0.111469 0.108075,-0.25503 0.217041,-0.35295 0.108966,-0.09792 0.252297,-0.150401 0.646472,-0.183451 0.295631,-0.02477 0.73218,-0.03838 1.101225,-0.04031 z"
       sodipodi:nodetypes="csssssssssssssscccssccssscscccccccccsscssccscsscscs" /></g><g
     inkscape:groupmode="layer"
     id="layer4"
     inkscape:label="Layer 1"
     transform="translate(0.00103354,-26.950277)"><path
       style="fill:#ffffff;fill-opacity:1;stroke:none;stroke-width:0.264583;stroke-opacity:1"
       d="m 19.757754,35.371484 c -0.350578,0 -1.051999,0 -1.402452,-2.04e-4 -0.350453,-2.04e-4 -0.34976,-5.68e-4 -0.349447,-0.0097 3.14e-4,-0.0092 3.14e-4,-0.02742 3.14e-4,-0.973981 0,-0.946562 0,-2.821344 0.0011,-3.759264 0.0011,-0.937919 0.0032,-0.938616 0.3474,-0.938941 0.34423,-3.25e-4 1.030479,-3.25e-4 1.374978,0.0012 0.344499,0.0015 0.347299,0.0043 0.348549,0.119716 0.0012,0.115417 0.0012,0.34348 0.01374,0.480965 0.01249,0.137485 0.03729,0.184334 0.06285,0.211784 0.02557,0.02745 0.05176,0.03572 0.07957,0.03391 0.02782,-0.0018 0.05744,-0.01351 0.106963,-0.06686 0.04952,-0.05335 0.119115,-0.148433 0.26005,-0.286615 0.140934,-0.138182 0.353148,-0.319391 0.564782,-0.421714 0.211635,-0.102323 0.422473,-0.125749 0.660203,-0.13745 0.23773,-0.0117 0.502309,-0.0117 0.756559,-0.0117 0.25425,0 0.498158,0 0.692491,0.03522 0.194332,0.03522 0.339021,0.105497 0.472004,0.167503 0.132983,0.06201 0.254248,0.115747 0.376151,0.230895 0.121903,0.115149 0.244547,0.291535 0.336145,0.455531 0.0916,0.163997 0.152232,0.315579 0.182484,0.560845 0.03025,0.245267 0.03025,0.584256 0.01385,0.753622 -0.0164,0.169367 -0.04948,0.169367 -0.362986,0.169367 -0.313511,0 -0.907433,0 -1.205743,-0.0045 -0.29831,-0.0045 -0.3008,-0.01383 -0.305661,-0.119282 -0.0049,-0.105451 -0.01201,-0.306941 -0.09536,-0.463532 -0.08335,-0.156592 -0.243202,-0.268211 -0.426486,-0.339264 -0.183283,-0.07105 -0.389986,-0.10137 -0.633258,-0.0897 -0.243271,0.01167 -0.523007,0.06542 -0.733952,0.163278 -0.210944,0.09786 -0.35288,0.239797 -0.4411,0.36873 -0.08822,0.128933 -0.12267,0.244685 -0.13987,0.888115 -0.0172,0.64343 -0.0172,1.814396 -0.01793,2.399604 -7.26e-4,0.585208 -0.0024,0.584844 -0.03347,0.584281 -0.03103,-5.63e-4 -0.09131,-0.0013 -0.12159,-0.0016 -0.03028,-3.52e-4 -0.03031,-1.7e-4 -0.380892,-1.7e-4 z"
       id="path1625"
       inkscape:path-effect="#path-effect1627"
       inkscape:original-d="m 20.108333,35.371484 c -0.701157,2.65e-4 -1.402578,2.65e-4 -2.104264,0 9.52e-4,-7.9e-5 0.0016,-5.29e-4 0.0021,-0.0011 2.64e-4,-0.01799 2.64e-4,-0.03625 0,-0.05478 2.64e-4,-1.874594 2.64e-4,-3.749376 0,-5.624462 0.0023,-5.29e-4 0.0044,-0.0011 0.0062,-0.0021 0.686542,2.65e-4 1.372791,2.65e-4 2.058789,0 0.003,0.003 0.0058,0.0058 0.0083,0.0083 2.64e-4,0.228333 2.64e-4,0.456396 0,0.684194 0.02507,0.04712 0.04987,0.09397 0.07441,0.14056 0.02645,0.0085 0.05263,0.0168 0.07855,0.02479 0.02989,-0.01146 0.05952,-0.02315 0.08888,-0.03514 0.06986,-0.09482 0.139447,-0.189905 0.208773,-0.285252 0.212487,-0.180952 0.424701,-0.36216 0.636654,-0.543637 0.211108,-0.02315 0.421944,-0.04659 0.632519,-0.07028 0.264853,-0.0011 0.529432,2.64e-4 0.79375,0 0.244182,2.64e-4 0.48809,2.64e-4 0.731739,0 0.144961,0.07055 0.289652,0.140824 0.434082,0.210841 0.121534,0.05401 0.242799,0.107751 0.363802,0.161229 0.122912,0.176657 0.245555,0.353044 0.367936,0.529166 0.0609,0.151853 0.121532,0.303435 0.181901,0.454753 2.64e-4,0.33927 2.64e-4,0.678259 0,1.016992 -0.03281,2.65e-4 -0.06588,2.65e-4 -0.09922,0 -0.593682,2.65e-4 -1.187604,2.65e-4 -1.781803,0 -0.0011,-0.0094 -0.0047,-0.01841 -0.0075,-0.02803 -0.0069,-0.201234 -0.01402,-0.402725 -0.02143,-0.604486 -0.159591,-0.111358 -0.31944,-0.222978 -0.479557,-0.334865 -0.206445,-0.03005 -0.413147,-0.06037 -0.620117,-0.09095 -0.279483,0.05401 -0.559219,0.107752 -0.839225,0.161232 -0.141677,0.142205 -0.283612,0.284141 -0.425814,0.425812 -0.03419,0.116023 -0.06864,0.231775 -0.103353,0.347266 2.64e-4,1.171276 2.64e-4,2.342242 0,3.512965 -0.0015,-7.9e-5 -0.0032,-5.29e-4 -0.0052,-0.0011 -0.06003,-5.29e-4 -0.120314,-0.0011 -0.180868,-0.0021 z" /></g><g
     inkscape:groupmode="layer"
     id="layer4-8"
     inkscape:label="Layer 1"
     transform="translate(53.541399,-26.89971)"><path
       style="fill:#ffffff;fill-opacity:1;stroke:none;stroke-width:0.264583;stroke-opacity:1"
       d="m 19.54728,35.324712 c -0.350579,0 -1.052,0 -1.402453,-2.04e-4 -0.350453,-2.04e-4 -0.34976,-5.68e-4 -0.349447,-0.0097 3.14e-4,-0.0092 3.14e-4,-0.02742 3.14e-4,-0.973981 0,-0.946562 0,-2.821344 0.0011,-3.759264 0.0011,-0.937919 0.0032,-0.938616 0.3474,-0.938941 0.34423,-3.25e-4 1.030479,-3.25e-4 1.374978,0.0012 0.344499,0.0015 0.347299,0.0043 0.348549,0.119716 0.0012,0.115417 0.0012,0.34348 0.01374,0.480965 0.01249,0.137485 0.03729,0.184334 0.06285,0.211784 0.02557,0.02745 0.05176,0.03572 0.07957,0.03391 0.02782,-0.0018 0.05744,-0.01351 0.106963,-0.06686 0.04953,-0.05335 0.119115,-0.148433 0.26005,-0.286615 0.140934,-0.138182 0.353148,-0.319391 0.564782,-0.421714 0.211635,-0.102323 0.422473,-0.125749 0.660203,-0.13745 0.23773,-0.0117 0.502309,-0.0117 0.756559,-0.0117 0.25425,0 0.498158,0 0.692491,0.03522 0.194332,0.03522 0.339021,0.105497 0.472004,0.167503 0.132983,0.06201 0.254248,0.115747 0.376151,0.230895 0.121903,0.115149 0.244547,0.291535 0.336145,0.455531 0.0916,0.163997 0.152232,0.315579 0.182484,0.560845 0.03025,0.245267 0.03025,0.584256 0.01385,0.753622 -0.0164,0.169367 -0.04948,0.169367 -0.362986,0.169367 -0.313511,0 -0.907433,0 -1.205743,-0.0045 -0.29831,-0.0045 -0.3008,-0.01383 -0.305661,-0.119282 -0.0049,-0.105451 -0.012,-0.306941 -0.09536,-0.463532 -0.08335,-0.156592 -0.243202,-0.268211 -0.426486,-0.339264 -0.183283,-0.07105 -0.389986,-0.10137 -0.633258,-0.0897 -0.243271,0.01167 -0.523007,0.06541 -0.733952,0.163278 -0.210944,0.09786 -0.35288,0.239797 -0.4411,0.36873 -0.08822,0.128933 -0.12267,0.244685 -0.13987,0.888115 -0.0172,0.64343 -0.0172,1.814396 -0.01793,2.399604 -7.26e-4,0.585208 -0.0024,0.584844 -0.03347,0.584281 -0.03103,-5.63e-4 -0.09131,-0.0013 -0.12159,-0.0016 -0.03028,-3.52e-4 -0.03031,-1.7e-4 -0.380891,-1.7e-4 z"
       id="path1625-1"
       inkscape:path-effect="#path-effect1627-2"
       inkscape:original-d="m 19.897858,35.324712 c -0.701157,2.65e-4 -1.402578,2.65e-4 -2.104264,0 9.52e-4,-7.9e-5 0.0016,-5.29e-4 0.0021,-0.0011 2.64e-4,-0.01799 2.64e-4,-0.03625 0,-0.05478 2.64e-4,-1.874594 2.64e-4,-3.749376 0,-5.624462 0.0023,-5.29e-4 0.0044,-0.0011 0.0062,-0.0021 0.686542,2.65e-4 1.372791,2.65e-4 2.058789,0 0.003,0.003 0.0058,0.0058 0.0083,0.0083 2.64e-4,0.228333 2.64e-4,0.456396 0,0.684194 0.02507,0.04712 0.04987,0.09397 0.07441,0.14056 0.02645,0.0085 0.05263,0.0168 0.07855,0.02479 0.02989,-0.01146 0.05952,-0.02315 0.08888,-0.03514 0.06986,-0.09482 0.139447,-0.189905 0.208773,-0.285252 0.212487,-0.180952 0.424701,-0.36216 0.636654,-0.543637 0.211108,-0.02315 0.421944,-0.04659 0.632519,-0.07028 0.264853,-0.0011 0.529432,2.64e-4 0.79375,0 0.244182,2.64e-4 0.48809,2.64e-4 0.731739,0 0.144961,0.07055 0.289652,0.140824 0.434082,0.210841 0.121534,0.05401 0.242799,0.107751 0.363802,0.161229 0.122912,0.176657 0.245555,0.353044 0.367936,0.529166 0.0609,0.151853 0.121532,0.303435 0.181901,0.454753 2.64e-4,0.33927 2.64e-4,0.678259 0,1.016992 -0.03281,2.65e-4 -0.06588,2.65e-4 -0.09922,0 -0.593682,2.65e-4 -1.187604,2.65e-4 -1.781803,0 -0.0011,-0.0094 -0.0047,-0.01841 -0.0075,-0.02803 -0.0069,-0.201234 -0.01402,-0.402725 -0.02143,-0.604486 -0.159591,-0.111358 -0.31944,-0.222978 -0.479557,-0.334865 -0.206445,-0.03005 -0.413147,-0.06037 -0.620117,-0.09095 -0.279483,0.05401 -0.559219,0.107752 -0.839225,0.161232 -0.141677,0.142205 -0.283612,0.284141 -0.425814,0.425812 -0.03419,0.116023 -0.06864,0.231775 -0.103353,0.347266 2.64e-4,1.171276 2.64e-4,2.342242 0,3.512965 -0.0015,-7.9e-5 -0.0032,-5.29e-4 -0.0052,-0.0011 -0.06003,-5.29e-4 -0.120314,-0.0011 -0.180868,-0.0021 z" /></g><g
     inkscape:groupmode="layer"
     id="layer9"
     inkscape:label="Layer 6"
     transform="translate(0.00103354,-26.950277)"><path
       id="path2843"
       style="display:inline;fill:#ffffff;fill-opacity:1;stroke:none;stroke-width:0.264583;stroke-opacity:1"
       d="m 82.620797,29.627649 c -0.664962,0.0011 -1.37936,0.0076 -1.842782,0.0248 -0.741474,0.02754 -0.840604,0.08286 -0.963249,0.150378 -0.122643,0.06752 -0.269013,0.14725 -0.412377,0.258899 -0.143364,0.111648 -0.283506,0.25521 -0.377238,0.387573 -0.09373,0.132362 -0.140767,0.253315 -0.158647,0.407727 -0.01788,0.154411 -0.0071,0.342066 -0.0016,0.435633 0.0055,0.09357 0.0057,0.09344 0.01964,0.101802 0.01394,0.0084 0.04171,0.0249 0.358634,0.03307 0.316928,0.0082 0.923198,0.0085 1.260388,-0.05064 0.337192,-0.05916 0.405318,-0.177627 0.452169,-0.271301 0.04685,-0.09367 0.07212,-0.162974 0.173116,-0.215491 0.101001,-0.05252 0.277636,-0.08805 0.704867,-0.105937 0.427229,-0.01789 1.105356,-0.01787 1.502234,0.03876 0.396877,0.05663 0.512356,0.169642 0.60048,0.30334 0.08812,0.133699 0.148899,0.288044 0.173632,0.454753 0.02474,0.166709 0.01378,0.345485 -0.0124,0.45837 -0.02618,0.112885 -0.06766,0.160075 -0.152962,0.118856 -0.0853,-0.04122 -0.214987,-0.171031 -0.318327,-0.266134 -0.10334,-0.0951 -0.180154,-0.155603 -0.745174,-0.186035 -0.565021,-0.03043 -1.618259,-0.03029 -2.29495,0.03721 -0.676692,0.0675 -0.97714,0.202199 -1.237651,0.377238 -0.260512,0.17504 -0.480755,0.390373 -0.597896,0.628902 -0.117141,0.23853 -0.131092,0.500219 -0.137976,0.810287 -0.0069,0.310067 -0.0065,0.66818 0.05839,0.907955 0.06491,0.239775 0.194109,0.361088 0.358118,0.475423 0.164009,0.114336 0.362421,0.221708 0.529166,0.304374 0.166745,0.08267 0.302152,0.140629 0.912606,0.169499 0.610455,0.02887 1.696333,0.02875 2.272213,-0.0098 0.575878,-0.03858 0.641646,-0.115581 0.764294,-0.258899 0.122647,-0.143318 0.301878,-0.35274 0.406694,-0.463021 0.104816,-0.110281 0.135293,-0.121252 0.150378,0.02222 0.01508,0.143478 0.01503,0.440932 0.03721,0.589628 0.02218,0.148696 0.06631,0.148828 0.427364,0.148828 0.361052,0 1.039012,4.8e-5 1.379244,-0.01085 0.340233,-0.0109 0.342767,-0.03291 0.344165,-0.845943 0.0014,-0.813042 0.0014,-2.417408 -0.04393,-3.256649 -0.04533,-0.83924 -0.136245,-0.913472 -0.283703,-1.04438 -0.147459,-0.130907 -0.351417,-0.318071 -0.529167,-0.432532 -0.177749,-0.114461 -0.328987,-0.1562 -0.509529,-0.182418 -0.180543,-0.02622 -0.389966,-0.03685 -1.186491,-0.04237 -0.298698,-0.0021 -0.680027,-0.0037 -1.079004,-0.0031 z m -0.577743,3.280937 c 0.41039,-7.65e-4 0.930153,10e-4 1.248503,0.0072 0.424466,0.0083 0.490518,0.02503 0.548287,0.114722 0.05777,0.08969 0.10756,0.25191 0.115755,0.385506 0.0082,0.133597 -0.02468,0.238327 -0.105937,0.337447 -0.08125,0.09912 -0.210945,0.192911 -0.690397,0.248047 -0.479452,0.05514 -1.308805,0.07207 -1.791105,0.03359 -0.4823,-0.03848 -0.617716,-0.132308 -0.678512,-0.268718 -0.06079,-0.136409 -0.03504,-0.417739 0.06698,-0.565334 0.102022,-0.147597 0.520361,-0.288174 0.924167,-0.290944 0.100952,-6.84e-4 0.225456,-0.0013 0.362252,-0.0016 z"
       sodipodi:nodetypes="ccssssscccsssssssssssssscssscssssssssssscccccsssssssscc" /></g><g
     inkscape:groupmode="layer"
     id="layer11"
     inkscape:label="Layer 8"
     transform="translate(0.00103354,-26.950277)"><path
       style="fill:#ffffff;fill-opacity:1;stroke:none;stroke-width:0.264583;stroke-opacity:1"
       d="m 95.442498,35.320904 c 0.0039,-0.06224 0.01169,-0.186964 0.01559,-1.543374 0.0039,-1.356409 0.0039,-3.944418 0.0196,-5.248411 0.01569,-1.303993 0.047,-1.323614 0.454125,-1.333398 0.40712,-0.0098 1.189831,-0.0098 1.583841,0.0083 0.39401,0.01806 0.399523,0.05389 0.402257,0.753932 0.0027,0.70004 0.0027,2.064271 0.03732,2.746268 0.03458,0.681997 0.103483,0.681997 0.180652,0.681997 0.07717,0 0.162609,0 0.509527,-0.304331 0.346917,-0.30433 0.955556,-0.91297 1.302829,-1.217294 0.347273,-0.304323 0.432973,-0.304323 0.907253,-0.304323 0.47428,0 1.33712,0 1.76976,0.02197 0.43264,0.02197 0.43531,0.06564 -0.047,0.496591 -0.48237,0.430952 -1.44973,1.249488 -1.93897,1.694716 -0.48924,0.445227 -0.50027,0.516883 0.0442,1.048831 0.54448,0.531948 1.64413,1.524115 2.18693,2.055986 0.54281,0.53187 0.52903,0.603567 0.26575,0.63107 -0.26327,0.0275 -0.77569,0.01105 -1.24448,0.0083 -0.46879,-0.0028 -0.89296,0.0082 -1.09956,-0.02753 -0.20661,-0.03572 -0.19557,-0.118449 -0.57714,-0.547008 -0.381575,-0.428558 -1.156017,-1.203003 -1.572168,-1.593107 -0.416152,-0.390103 -0.474038,-0.395617 -0.576027,-0.397007 -0.101989,-0.0014 -0.24806,0.0014 -0.318458,0.04011 -0.0704,0.03874 -0.06488,0.113148 -0.06214,0.527935 0.0027,0.414787 0.0027,1.169937 -0.0033,1.547387 -0.0061,0.377451 -0.01848,0.377451 -0.39357,0.377451 -0.375091,0 -1.112847,0 -1.481864,-0.005 -0.369017,-0.005 -0.369017,-0.01518 -0.369017,-0.02564 0,-0.01046 0,-0.02118 0,-0.02667 0,-0.0055 2.24e-4,-0.0055 0.0041,-0.06776 z"
       id="path2922"
       inkscape:path-effect="#path-effect2924"
       inkscape:original-d="m 95.438607,35.383144 c 0.0081,-0.12446 0.01585,-0.249187 0.02339,-0.374176 2.65e-4,-2.587847 2.65e-4,-5.175856 0,-7.764182 0.03158,-0.01934 0.06289,-0.03897 0.09393,-0.05885 0.783005,2.65e-4 1.565716,2.65e-4 2.348177,0 0.0058,0.03609 0.0113,0.07192 0.01654,0.107487 2.65e-4,1.364549 2.65e-4,2.72878 0,4.092774 0.06917,2.64e-4 0.138068,2.64e-4 0.206706,0 0.0857,2.64e-4 0.17114,2.64e-4 0.256315,0 0.608925,-0.608397 1.217565,-1.217036 1.825945,-1.825948 0.0859,2.64e-4 0.1716,2.64e-4 0.25701,0 0.86315,2.64e-4 1.72599,2.64e-4 2.58859,0 0.003,0.04392 0.006,0.08757 0.008,0.130961 -0.96714,0.818835 -1.9345,1.637374 -2.90215,2.455664 -0.0108,0.07192 -0.0218,0.143581 -0.0331,0.214974 1.09996,0.99247 2.19961,1.984639 3.29902,2.976562 -0.0135,0.07186 -0.0273,0.143552 -0.0413,0.214973 -0.51283,-0.01621 -1.02525,-0.03267 -1.53868,-0.04941 -0.42413,0.01123 -0.8483,0.02219 -1.27252,0.03288 0.0113,-0.08237 0.0223,-0.1651 0.0331,-0.248046 -0.774203,-0.774208 -1.548646,-1.548652 -2.323367,-2.323373 -0.05761,-0.0052 -0.115491,-0.01077 -0.173633,-0.01654 -0.145809,0.003 -0.29188,0.0058 -0.438216,0.0083 0.0058,0.07468 0.0113,0.149093 0.01654,0.223242 2.65e-4,0.755444 2.65e-4,1.510594 0,2.265495 -0.01214,2.64e-4 -0.02455,2.64e-4 -0.03721,0 -0.737521,2.64e-4 -1.475277,2.64e-4 -2.213311,0 2.65e-4,-0.0099 2.65e-4,-0.02013 0,-0.0306 2.65e-4,-0.01045 2.65e-4,-0.02117 0,-0.03216 z"
       sodipodi:nodetypes="cccccccccccccccccccccccccccccc" /></g><g
     inkscape:groupmode="layer"
     id="layer5"
     inkscape:label="Layer 2"
     transform="translate(0.00103354,-26.950277)"><path
       id="path1661"
       style="fill:#ffffff;fill-opacity:1;stroke:none;stroke-width:0.264583;stroke-opacity:1"
       d="m 43.617493,29.608012 c -0.272511,7.3e-5 -0.548958,0.0026 -0.749825,0.0078 -0.401737,0.01032 -0.50072,0.03084 -0.643372,0.07286 -0.142653,0.04202 -0.328762,0.105395 -0.47594,0.186035 -0.147177,0.08064 -0.255087,0.178604 -0.37052,0.303341 -0.115433,0.124737 -0.354115,0.25162 -0.398425,0.605131 -0.175397,-0.18405 -0.207043,-0.28949 -0.362768,-0.501744 -0.09918,-0.110274 -0.237214,-0.234214 -0.400492,-0.338998 -0.09867,-0.06332 -0.193388,-0.129921 -0.288091,-0.176169 -0.06201,-0.03028 -0.131523,-0.04599 -0.175963,-0.06671 -0.05848,-0.02726 -0.144493,-0.04111 -0.219503,-0.0537 -0.06906,-0.01159 -0.121441,-0.02278 -0.298812,-0.02743 -0.370025,-0.0097 -1.074143,-0.0098 -1.475879,5.17e-4 -0.401737,0.01032 -0.501236,0.03083 -0.643888,0.07286 -0.142653,0.04202 -0.328219,0.105362 -0.481625,0.227376 -0.153406,0.122014 -0.274396,0.302822 -0.351916,0.418579 -0.07752,0.115757 -0.111951,0.166776 -0.145211,0.192236 -0.03326,0.02545 -0.06565,0.0254 -0.09043,0.02171 -0.02478,-0.0037 -0.04184,-0.01144 -0.05064,-0.163298 -0.0088,-0.151862 -0.0088,-0.448026 -0.0088,-0.60203 0,-0.154 -1.34e-4,-0.165566 -0.345198,-0.171566 -0.345066,-0.006 -1.035254,-0.0062 -1.386996,-0.0062 -0.351741,0 -0.364853,2.13e-4 -0.371553,0.974617 -0.0067,0.974404 -0.0067,2.922781 -0.0067,3.89692 0,0.974139 -2.16e-4,0.974408 0.0026,0.975134 0.0028,7e-4 0.0083,0.0019 0.364835,0.0026 0.356529,6.39e-4 1.064398,5.17e-4 1.420069,5.17e-4 0.355669,0 0.359101,-1.34e-4 0.360701,-0.403076 0.0016,-0.402943 0.0017,-1.209053 -0.0031,-1.736845 -0.0048,-0.527792 -0.01479,-0.77717 -0.0031,-0.971517 0.01168,-0.194348 0.0448,-0.333272 0.08062,-0.442867 0.03583,-0.109596 0.07457,-0.18944 0.137976,-0.28112 0.06341,-0.09169 0.151342,-0.195292 0.258899,-0.275952 0.107557,-0.08066 0.234536,-0.138685 0.433049,-0.166915 0.198512,-0.02824 0.46887,-0.0265 0.699699,-0.0217 0.230828,0.0048 0.422174,0.01286 0.612365,0.05219 0.190192,0.03932 0.379005,0.109642 0.49196,0.168982 0.112953,0.05934 0.149975,0.107847 0.168465,0.763261 0.01849,0.655415 0.0186,1.918044 0.0186,2.572453 0,0.654409 2.17e-4,0.70052 0.01964,0.72347 0.01942,0.02295 0.05786,0.02297 0.447001,0.02687 0.389144,0.0039 1.12882,0.01149 1.500167,0.0088 0.371305,-0.0027 0.374302,-0.01611 0.366902,-0.577225 -0.0074,-0.561116 -0.02537,-1.661708 -0.0248,-2.287199 3.97e-4,-0.44746 0.01016,-0.648236 0.0083,-0.788066 0.0288,-0.07235 0.06233,-0.134294 0.109554,-0.202571 0.06341,-0.09168 0.151859,-0.194776 0.259416,-0.275436 0.107557,-0.08066 0.234019,-0.138685 0.432531,-0.166915 0.198512,-0.02824 0.468871,-0.0265 0.699699,-0.0217 0.230829,0.0048 0.422174,0.01287 0.612366,0.05219 0.190192,0.03932 0.379005,0.109642 0.49196,0.168982 0.112953,0.05934 0.150492,0.10733 0.168982,0.762745 0.01849,0.655415 0.01809,1.918044 0.01809,2.572452 0,0.65441 2.17e-4,0.70052 0.01964,0.72347 0.01942,0.02295 0.05805,0.02325 0.458887,0.02325 0.400836,0 1.164049,1.6e-5 1.545642,-0.0026 0.381594,-0.0026 0.381697,-0.0084 0.381889,-0.56224 2e-4,-0.553799 2.98e-4,-1.655544 -0.0093,-2.280997 -0.0016,-0.753225 -0.09596,-1.375978 -0.467156,-1.988509 -0.07163,-0.139188 -0.13233,-0.235443 -0.23151,-0.345716 -0.09918,-0.110274 -0.226363,-0.24248 -0.389641,-0.347265 -0.292272,-0.240581 -0.649553,-0.302333 -0.99322,-0.315741 -0.185013,-0.0049 -0.453543,-0.0073 -0.726054,-0.0072 z"
       sodipodi:nodetypes="ccsssccsscssscssccssssssccsssccsscscssssscsccsscssssssscsccscccc" /></g><g
     inkscape:groupmode="layer"
     id="layer6"
     inkscape:label="Layer 3"
     transform="translate(0.00103354,-26.950277)"><path
       id="path1695"
       style="fill:#ffffff;fill-opacity:1;stroke:none;stroke-width:0.264583;stroke-opacity:1"
       d="m 47.469971,27.373006 v 1.637109 l 2.104264,-0.02325 V 27.37301 Z m 0.01137,2.572452 -0.0083,5.451349 10e-4,0.130224 2.094962,-0.0036 -0.04134,-5.577955 z"
       sodipodi:nodetypes="ccccccccccc" /><path
       id="path1695-1"
       style="fill:#ffffff;fill-opacity:1;stroke:none;stroke-width:0.264583;stroke-opacity:1"
       d="m 103.75355,27.332479 v 1.637109 l 2.10427,-0.02325 v -1.613855 z m 0.0114,2.572452 -0.006,5.331945 3e-4,0.269123 2.02852,-7.6e-5 0.0234,-5.600996 z"
       sodipodi:nodetypes="ccccccccccc" /></g><g
     inkscape:groupmode="layer"
     id="layer12"
     inkscape:label="Layer 9"
     transform="translate(0.00103354,-26.950277)"><path
       style="fill:#ffffff;fill-opacity:1;stroke:none;stroke-width:0.264583;stroke-opacity:1"
       d="m 20.90838,38.363731 c -0.04314,0.04179 -0.129416,0.125357 -0.219656,0.21722 -0.09024,0.09186 -0.184424,0.192 -0.284594,0.376491 -0.100169,0.184491 -0.206278,0.453209 -0.259306,0.985893 -0.05303,0.532684 -0.05303,1.329172 0.03394,1.84593 0.08697,0.516757 0.260683,0.753719 0.461931,0.919003 0.201248,0.165284 0.429911,0.259041 0.62416,0.3169 0.194249,0.05786 0.354099,0.07991 0.924602,0.08953 0.570502,0.0096 1.551645,0.0069 2.077995,-0.0083 0.526349,-0.01519 0.59801,-0.04275 0.74541,-0.141959 0.1474,-0.09921 0.370638,-0.270081 0.511154,-0.462903 0.140516,-0.192821 0.198393,-0.407791 0.234235,-0.588286 0.03584,-0.180496 0.04962,-0.326568 0.0456,-0.416108 -0.004,-0.08954 -0.02607,-0.122609 -0.210695,-0.139298 -0.184629,-0.01669 -0.531888,-0.01669 -0.708422,0.0096 -0.176533,0.0263 -0.182047,0.07867 -0.222024,0.170924 -0.03998,0.09226 -0.114389,0.224546 -0.202521,0.320942 -0.08813,0.0964 -0.190103,0.157028 -0.61721,0.187369 -0.427107,0.03034 -1.179501,0.03034 -1.594289,-0.0067 -0.414788,-0.03708 -0.491956,-0.111491 -0.570556,-0.224462 -0.0786,-0.112972 -0.158524,-0.264554 -0.198571,-0.588424 -0.04005,-0.323871 -0.04005,-0.819954 0.01369,-1.131513 0.05373,-0.311559 0.161219,-0.438334 0.26326,-0.52519 0.102041,-0.08686 0.198501,-0.133708 0.627156,-0.157108 0.428655,-0.0234 1.189317,-0.0234 1.59723,-0.0012 0.407912,0.02217 0.463033,0.06626 0.490449,0.191683 0.02742,0.12542 0.02742,0.33212 0.0496,0.435341 0.02218,0.10322 0.06628,0.10322 0.255074,0.10322 0.188794,0 0.522272,0 0.711063,0 0.18879,0 0.23289,0 0.243791,-0.158337 0.0109,-0.158336 -0.01115,-0.475278 -0.08271,-0.712296 -0.07156,-0.237018 -0.192822,-0.394112 -0.316802,-0.504423 -0.12398,-0.110312 -0.250757,-0.1737 -0.352049,-0.230865 -0.101292,-0.05716 -0.176881,-0.108014 -0.334695,-0.160069 -0.157814,-0.05206 -0.396058,-0.104598 -0.758149,-0.142803 -0.362091,-0.03821 -0.846144,-0.06178 -1.356316,-0.04459 -0.510173,0.01718 -1.043985,0.0751 -1.311311,0.104106 -0.267325,0.029 -0.267325,0.029 -0.310465,0.07079 z"
       id="path3005"
       inkscape:path-effect="#path-effect3007"
       inkscape:original-d="m 20.95152,38.321945 c -0.08602,0.08384 -0.172296,0.167412 -0.258843,0.250723 -0.09392,0.100402 -0.188105,0.200539 -0.282553,0.300411 -0.105844,0.26898 -0.211953,0.537698 -0.318327,0.806152 2.64e-4,0.796788 2.64e-4,1.593276 0,2.389518 0.173987,0.237239 0.347699,0.474201 0.521156,0.710911 0.228937,0.09403 0.457601,0.187783 0.686005,0.281277 0.16012,0.0223 0.319969,0.04436 0.479557,0.06615 0.981448,-0.0024 1.962591,-0.0052 2.94349,-0.0083 0.07192,-0.0273 0.143581,-0.05486 0.214974,-0.08268 0.223511,-0.170616 0.446749,-0.341489 0.669726,-0.51263 0.05814,-0.214714 0.11602,-0.429683 0.173633,-0.644922 0.01404,-0.145809 0.02783,-0.29188 0.04134,-0.438216 -0.02179,-0.03281 -0.04383,-0.06588 -0.06614,-0.09922 -0.347008,2.64e-4 -0.694267,2.64e-4 -1.041797,0 -0.0052,0.05263 -0.01076,0.104994 -0.01654,0.157096 -0.07415,0.132559 -0.148563,0.264848 -0.223242,0.396875 -0.101712,0.0609 -0.203685,0.121531 -0.305924,0.181901 -0.75216,2.65e-4 -1.504554,2.65e-4 -2.257227,0 -0.07691,-0.07415 -0.154076,-0.148564 -0.23151,-0.223242 -0.07966,-0.151323 -0.159588,-0.302903 -0.239779,-0.454753 2.65e-4,-0.49584 2.65e-4,-0.991923 0,-1.488281 0.107754,-0.126519 0.215238,-0.253294 0.322461,-0.380339 0.09673,-0.04659 0.19319,-0.09344 0.289388,-0.14056 0.760957,2.65e-4 1.521619,2.65e-4 2.282031,0 0.05539,0.04436 0.110508,0.08846 0.165365,0.132292 2.64e-4,0.206976 2.64e-4,0.413676 0,0.620117 0.04436,2.65e-4 0.08846,2.65e-4 0.132291,0 0.333757,2.65e-4 0.667235,2.65e-4 1.000456,0 0.04436,2.65e-4 0.08846,2.65e-4 0.132292,0 -0.02179,-0.31669 -0.04383,-0.633632 -0.06615,-0.950846 -0.121005,-0.156834 -0.24227,-0.313928 -0.363802,-0.471289 -0.126518,-0.06313 -0.253295,-0.126516 -0.380339,-0.190169 -0.07553,-0.05072 -0.151117,-0.101571 -0.227376,-0.152958 -0.239371,-0.05259 -0.477616,-0.105129 -0.716994,-0.158129 -0.484773,-0.02336 -0.968826,-0.04693 -1.454416,-0.07083 -0.534711,0.05831 -1.068524,0.116226 -1.603206,0.173944 z"
       sodipodi:nodetypes="ccccccccccccccccccccccccccccccccccccc" /></g><g
     inkscape:groupmode="layer"
     id="layer12-0"
     inkscape:label="Layer 9"
     transform="translate(18.748425,-36.749111)"><path
       style="fill:#ffffff;fill-opacity:1;stroke:none;stroke-width:0.347681;stroke-opacity:1"
       d="m 69.544149,39.464375 c -0.102953,0.0313 -0.309068,0.09395 -0.476071,0.204853 -0.167003,0.110902 -0.294534,0.269823 -0.393025,0.516364 -0.09849,0.246541 -0.167812,0.580302 -0.202458,1.23624 -0.03464,0.655938 -0.03464,1.633836 0.08768,2.268295 0.122322,0.63446 0.366638,0.925392 0.649671,1.128315 0.283033,0.202924 0.604635,0.318034 0.877838,0.389075 0.273203,0.07104 0.498023,0.09811 1.300407,0.109927 0.802385,0.01181 2.182306,0.0084 2.922603,-0.01024 0.740297,-0.01866 0.841086,-0.0525 1.048405,-0.174309 0.207318,-0.121815 0.521289,-0.331607 0.718896,-0.568344 0.197607,-0.236737 0.279006,-0.500669 0.329412,-0.722265 0.0504,-0.221595 0.06978,-0.400936 0.06413,-0.510861 -0.0057,-0.109925 -0.03666,-0.150531 -0.296331,-0.171023 -0.259672,-0.02049 -0.748072,-0.02049 -0.996356,0.01179 -0.248284,0.03228 -0.256038,0.09658 -0.312247,0.209829 -0.05621,0.113251 -0.160868,0.275672 -0.28481,0.394034 -0.123942,0.118363 -0.267361,0.192805 -0.868087,0.230069 -0.600726,0.03726 -1.658926,0.03726 -2.242303,-0.0083 -0.583377,-0.04552 -0.691908,-0.136883 -0.802449,-0.275578 -0.11054,-0.138694 -0.22295,-0.3248 -0.279278,-0.722444 -0.05633,-0.397643 -0.05633,-1.006715 0.01927,-1.389259 0.0756,-0.382544 0.226768,-0.538195 0.370283,-0.644819 0.143514,-0.106624 0.279179,-0.164147 0.882036,-0.192867 0.602857,-0.02872 1.672684,-0.02872 2.246385,-0.0015 0.573702,0.02721 0.65123,0.08135 0.68979,0.235342 0.03856,0.153988 0.03856,0.407766 0.06976,0.534496 0.03119,0.126731 0.09322,0.126731 0.358748,0.126731 0.265528,0 0.734545,0 1.000068,0 0.265524,0 0.327548,0 0.342879,-0.194397 0.01533,-0.194396 -0.01568,-0.583525 -0.11632,-0.874527 -0.100638,-0.291002 -0.271191,-0.483876 -0.445572,-0.619319 -0.174382,-0.135443 -0.352685,-0.213268 -0.495146,-0.283453 -0.142461,-0.07019 -0.248769,-0.132615 -0.470727,-0.196524 -0.221958,-0.06391 -0.557036,-0.128421 -1.066291,-0.175326 -0.509255,-0.04691 -1.190049,-0.07585 -1.90757,-0.05475 -0.717521,0.0211 -1.468298,0.09221 -1.844281,0.127818 -0.375983,0.03561 -0.37598,0.0356 -0.478933,0.0669 z"
       id="path3005-7"
       inkscape:path-effect="#path-effect3007-5"
       inkscape:original-d="m 69.647102,39.433079 c -0.205809,0.06291 -0.411925,0.125564 -0.618372,0.187975 -0.127365,0.159308 -0.254896,0.318229 -0.382778,0.476994 -0.06908,0.334149 -0.138405,0.66791 -0.208002,1.001456 3.72e-4,0.978266 3.72e-4,1.956164 0,2.93376 0.244703,0.291273 0.489019,0.582206 0.732976,0.87283 0.321988,0.115446 0.643591,0.230553 0.964828,0.345341 0.225199,0.02738 0.450018,0.05446 0.674469,0.08122 1.380351,-0.0029 2.760272,-0.0064 4.139851,-0.01019 0.101147,-0.03352 0.201939,-0.06735 0.302349,-0.101511 0.314355,-0.209476 0.628327,-0.419268 0.941932,-0.629388 0.08177,-0.263618 0.163175,-0.527549 0.244204,-0.791811 0.01975,-0.179019 0.03914,-0.358359 0.05814,-0.538025 -0.03065,-0.04028 -0.06165,-0.08089 -0.09302,-0.121819 -0.488047,3.25e-4 -0.976447,3.25e-4 -1.465229,0 -0.0073,0.06462 -0.01513,0.128908 -0.02326,0.192877 -0.104284,0.162751 -0.208946,0.32517 -0.313978,0.487268 -0.143051,0.07477 -0.286471,0.149211 -0.430264,0.223331 -1.05787,3.26e-4 -2.11607,3.26e-4 -3.174662,0 -0.10817,-0.09104 -0.216699,-0.182401 -0.325604,-0.274088 -0.112038,-0.185789 -0.224452,-0.371893 -0.337236,-0.558328 3.73e-4,-0.608774 3.73e-4,-1.217846 0,-1.827256 0.15155,-0.155335 0.30272,-0.310985 0.453523,-0.466966 0.136046,-0.0572 0.271711,-0.114722 0.407007,-0.172574 1.070244,3.26e-4 2.140071,3.26e-4 3.209547,0 0.0779,0.05446 0.155424,0.108608 0.232576,0.162423 3.72e-4,0.254118 3.72e-4,0.507896 0,0.761357 0.06239,3.25e-4 0.124414,3.25e-4 0.18606,0 0.469411,3.25e-4 0.938428,3.25e-4 1.407085,0 0.06239,3.25e-4 0.124414,3.25e-4 0.186061,0 -0.03065,-0.38882 -0.06165,-0.77795 -0.09304,-1.167413 -0.170187,-0.192555 -0.340739,-0.385429 -0.511667,-0.578631 -0.17794,-0.07751 -0.356245,-0.155332 -0.534925,-0.233482 -0.106233,-0.06227 -0.212537,-0.124706 -0.319792,-0.187797 -0.336661,-0.06457 -0.67174,-0.129073 -1.00841,-0.194144 -0.681806,-0.02868 -1.3626,-0.05762 -2.045554,-0.08696 -0.752041,0.07159 -1.502818,0.142698 -2.254818,0.213562 z"
       sodipodi:nodetypes="cccccccccccccccccccccccccccccccccccccc" /></g><g
     inkscape:groupmode="layer"
     id="layer17"
     inkscape:label="Layer 13"
     transform="translate(0.00103354,-26.950277)"><path
       id="path4370"
       style="display:inline;fill:#ffffff;fill-opacity:1;stroke:none;stroke-width:0.276646;stroke-opacity:1"
       inkscape:label="path4370"
       d="m 66.74373,38.224753 -2.279965,4.921375 h 1.835547 l 0.549838,-0.843486 h 2.233455 l 0.537952,0.856481 1.730127,-0.02542 -2.478919,-4.896516 z m 1.241025,1.191179 0.785684,1.605379 -1.576152,-0.03559 z"
       sodipodi:nodetypes="ccccccccccccc" /></g><g
     inkscape:groupmode="layer"
     id="layer18"
     inkscape:label="Layer 14"
     transform="translate(0.00103354,-26.950277)"><rect
       style="fill:#ffffff;fill-opacity:1;stroke:none;stroke-width:0.264583;stroke-opacity:1"
       id="rect4856"
       width="1.4882848"
       height="4.7955747"
       x="71.553261"
       y="38.331509" /></g><g
     inkscape:groupmode="layer"
     id="layer13"
     inkscape:label="Layer 10"
     transform="translate(0.00103354,-26.950277)"><path
       id="path3016"
       style="fill:#ffffff;fill-opacity:1;stroke:none;stroke-width:0.264583;stroke-opacity:1"
       d="m 31.852319,38.422978 c -0.224171,-1.47e-4 -0.507956,0.0017 -0.675927,0.0036 -0.223961,0.0026 -0.241664,0.0056 -0.250114,0.0072 -0.0084,0.0016 -0.0083,0.0016 -0.0083,0.548803 0,0.547214 -3.5e-5,1.641548 -0.02636,2.188497 -0.02632,0.546949 -0.07872,0.546737 -0.30334,0.546737 -0.224625,0 -0.621583,4.22e-4 -0.819588,-5.17e-4 -0.05553,-2.63e-4 -0.09485,-4.05e-4 -0.123507,0.0041 -0.138178,-0.005 -0.278875,-0.004 -0.414962,-0.0031 -0.456678,0.003 -0.853345,0.0031 -1.07797,0.0031 -0.224624,0 -0.277021,2.12e-4 -0.303341,-0.546736 -0.02632,-0.54695 -0.02636,-1.641284 -0.02636,-2.188497 0,-0.54722 -3.85e-4,-0.547204 -0.0088,-0.548804 -0.0084,-0.0016 -0.02564,-0.0052 -0.249597,-0.0078 -0.223962,-0.0026 -0.654485,-0.0045 -0.873848,-0.0026 -0.219368,0.0019 -0.227094,0.0078 -0.230994,0.446484 -0.0039,0.438649 -0.0039,1.309854 -0.001,1.895492 0.0029,0.585636 0.0086,0.885823 0.04083,1.117761 0.03221,0.231939 0.09069,0.395319 0.181384,0.548287 0.09069,0.152968 0.213662,0.29542 0.337447,0.405143 0.123786,0.109724 0.248642,0.186769 0.605131,0.225309 0.356489,0.03857 0.944408,0.03869 1.528072,0.03669 0.193999,-6.55e-4 0.385785,-0.0019 0.56534,-0.01137 0.05459,-9.15e-4 0.134963,-0.0016 0.270268,-0.0016 0.295857,1.5e-5 0.827406,0.0058 1.157552,-0.02997 0.330147,-0.03578 0.454474,-0.113001 0.578259,-0.222725 0.123785,-0.109723 0.246761,-0.251659 0.337448,-0.404627 0.09069,-0.152968 0.149174,-0.316865 0.181384,-0.548803 0.03221,-0.231939 0.0379,-0.532125 0.04082,-1.117762 0.0029,-0.585636 0.0029,-1.456843 -10e-4,-1.895491 -0.0039,-0.438648 -0.01164,-0.444026 -0.230994,-0.445968 -0.05484,-4.75e-4 -0.123197,-9.84e-4 -0.197921,-10e-4 z" /><path
       style="fill:#ffffff;fill-opacity:1;stroke:none;stroke-width:0.264583;stroke-opacity:1"
       d="m 37.766295,38.977163 c -0.03731,-0.04252 -0.111976,-0.127615 -0.195762,-0.223092 -0.08378,-0.09548 -0.176721,-0.201372 -0.518767,-0.269916 -0.342046,-0.06854 -0.935581,-0.09978 -1.557274,-0.115378 -0.621692,-0.0156 -1.272591,-0.0156 -1.703393,0.05844 -0.430802,0.07404 -0.641274,0.222149 -0.764093,0.419113 -0.122819,0.196963 -0.157897,0.442512 -0.175421,0.736812 -0.01752,0.2943 -0.01752,0.63729 0.04106,0.880908 0.05858,0.243618 0.175512,0.387829 0.380176,0.485153 0.204665,0.09732 0.497077,0.14801 0.884794,0.161332 0.387716,0.01332 0.871111,-0.01063 1.29748,-0.02166 0.426369,-0.01102 0.79508,-0.0091 1.036079,0.03945 0.241,0.04858 0.353573,0.143485 0.409034,0.287656 0.05546,0.144171 0.05403,0.337509 0.03528,0.458805 -0.01874,0.121296 -0.05477,0.170743 -0.50528,0.195443 -0.450513,0.0247 -1.315782,0.0247 -1.779591,0.0014 -0.46381,-0.02328 -0.52617,-0.07005 -0.575,-0.163549 -0.04883,-0.0935 -0.08391,-0.233812 -0.106712,-0.309352 -0.0228,-0.07554 -0.03352,-0.08626 -0.231333,-0.09176 -0.197812,-0.0055 -0.582698,-0.0055 -0.775279,0.0058 -0.192581,0.01133 -0.192581,0.03375 -0.192581,0.203796 0,0.17004 0,0.487693 0.03642,0.690287 0.03642,0.202593 0.10965,0.290862 0.175733,0.353568 0.06608,0.06271 0.126748,0.101812 0.237576,0.138214 0.110827,0.0364 0.268362,0.06928 0.438657,0.10442 0.170295,0.03514 0.351383,0.07214 0.958437,0.09062 0.607054,0.01848 1.639919,0.01848 2.181585,-0.001 0.541666,-0.0195 0.592334,-0.05848 0.691729,-0.132539 0.0994,-0.07406 0.247504,-0.183192 0.35757,-0.292279 0.110067,-0.109087 0.182174,-0.218221 0.224086,-0.347731 0.04191,-0.12951 0.05361,-0.279566 0.04784,-0.512554 -0.0058,-0.232988 -0.02928,-0.552356 -0.04194,-0.751144 -0.01267,-0.198788 -0.0146,-0.278688 -0.05441,-0.35762 -0.03981,-0.07893 -0.117768,-0.156885 -0.24053,-0.209611 -0.122761,-0.05273 -0.290358,-0.08001 -0.899399,-0.09368 -0.609041,-0.01367 -1.659445,-0.01367 -2.200323,-0.05736 -0.540877,-0.04369 -0.572058,-0.13139 -0.604225,-0.232732 -0.03217,-0.101342 -0.06529,-0.216322 -0.04977,-0.321688 0.01553,-0.105367 0.07983,-0.200857 0.147134,-0.268147 0.0673,-0.06729 0.13746,-0.106267 0.535118,-0.125731 0.397658,-0.01946 1.122613,-0.01946 1.500703,-0.0067 0.37809,0.01279 0.409268,0.03812 0.444286,0.08786 0.03502,0.04974 0.074,0.123793 0.106143,0.188107 0.03215,0.06431 0.05748,0.118881 0.249501,0.146004 0.192022,0.02712 0.550601,0.02712 0.726882,0.01656 0.17628,-0.01056 0.170434,-0.032 0.15092,-0.167442 -0.01951,-0.135443 -0.05257,-0.38425 -0.0692,-0.509452 -0.01663,-0.125202 -0.01663,-0.125205 -0.05394,-0.167723 z"
       id="path3112"
       inkscape:path-effect="#path-effect3114"
       inkscape:original-d="m 37.803603,39.019681 c -0.0746,-0.08505 -0.14928,-0.170136 -0.223998,-0.255282 -0.09285,-0.105812 -0.185775,-0.211716 -0.278803,-0.317679 -0.591095,-0.03086 -1.18463,-0.0621 -1.777341,-0.09354 -0.650661,2.64e-4 -1.30156,2.64e-4 -1.952739,0 -0.210214,0.148378 -0.420685,0.296489 -0.631423,0.444336 -0.03482,0.245821 -0.06989,0.491371 -0.105238,0.73666 2.65e-4,0.343268 2.65e-4,0.686258 0,1.028989 0.117197,0.144481 0.234125,0.288692 0.350793,0.432641 0.292594,0.05094 0.585007,0.101621 0.876977,0.152011 0.483514,-0.02368 0.966909,-0.04763 1.450198,-0.07186 0.369433,0.0022 0.738144,0.0041 1.107153,0.0057 0.112974,0.09528 0.225545,0.190188 0.337923,0.284888 -0.0012,0.19362 -0.0026,0.386958 -0.0043,0.580054 -0.03576,0.04971 -0.07178,0.09916 -0.108069,0.148341 -0.865037,2.65e-4 -1.730306,2.65e-4 -2.595856,0 -0.0621,-0.04651 -0.12446,-0.09328 -0.187087,-0.140316 -0.03482,-0.140058 -0.06989,-0.280369 -0.105238,-0.42095 -0.01045,-0.01045 -0.02117,-0.02117 -0.03215,-0.03216 -0.384641,2.64e-4 -0.769527,2.64e-4 -1.154689,0 2.64e-4,0.02267 2.64e-4,0.04509 0,0.06724 2.64e-4,0.317931 2.64e-4,0.635584 0,0.952981 0.07286,0.08777 0.146095,0.176037 0.21779,0.262507 0.0604,0.03903 0.121064,0.07814 0.181998,0.117321 0.160725,0.03375 0.318259,0.06663 0.477192,0.09959 0.181658,0.03732 0.362746,0.07432 0.543724,0.111085 1.033171,0.0061 2.066036,2.65e-4 3.098657,0 0.05094,-0.03871 0.101605,-0.07769 0.152008,-0.11693 0.148381,-0.108873 0.29649,-0.218006 0.444336,-0.327406 0.07237,-0.108873 0.144479,-0.218006 0.216324,-0.327406 0.01196,-0.149799 0.02365,-0.299855 0.03508,-0.450181 2.65e-4,-0.317402 -0.04651,-0.635058 -0.07016,-0.952984 -0.0016,-0.07964 -0.0036,-0.159538 -0.0058,-0.239707 -0.07769,-0.07769 -0.155644,-0.155641 -0.233862,-0.23386 -0.167339,-0.02702 -0.334936,-0.0543 -0.502801,-0.08185 -1.050182,2.64e-4 -2.100586,2.64e-4 -3.151275,0 -0.03092,-0.08743 -0.0621,-0.175131 -0.09354,-0.263094 -0.03287,-0.114718 -0.066,-0.229698 -0.09939,-0.344945 0.06458,-0.09523 0.128886,-0.190723 0.192934,-0.286481 0.07042,-0.03871 0.140581,-0.07769 0.210476,-0.11693 0.725247,2.65e-4 1.450202,2.65e-4 2.174904,0 0.03145,0.02561 0.06263,0.05094 0.09355,0.07601 0.03924,0.07432 0.07822,0.148376 0.11693,0.222166 0.02561,0.05483 0.05094,0.1094 0.076,0.163703 0.35886,2.64e-4 0.717439,2.64e-4 1.075762,0 -0.0056,-0.02117 -0.01143,-0.04261 -0.01754,-0.06431 -0.03287,-0.249168 -0.06592,-0.497975 -0.09941,-0.748349 z"
       sodipodi:nodetypes="ccccccccccccccccccccccccccccccccccccccccccccccc" /><rect
       style="fill:#ffffff;fill-opacity:1;stroke:none;stroke-width:0.264583;stroke-opacity:1"
       id="rect3116"
       width="5.6477389"
       height="1.0056016"
       x="38.3181"
       y="38.4818" /><rect
       style="fill:#ffffff;fill-opacity:1;stroke:none;stroke-width:0.264583;stroke-opacity:1"
       id="rect3118"
       width="1.4148581"
       height="4.1276436"
       x="40.43454"
       y="38.891056" /></g><g
     inkscape:groupmode="layer"
     id="layer19"
     inkscape:label="Layer 15"
     transform="translate(0.00103354,-26.950277)" /><rect
     style="fill:#ffffff;fill-opacity:1;stroke:none;stroke-width:0.264583;stroke-opacity:1"
     id="rect3116-6"
     width="5.6477389"
     height="1.0056016"
     x="80.24453"
     y="11.519828" /><rect
     style="fill:#ffffff;fill-opacity:1;stroke:none;stroke-width:0.264583;stroke-opacity:1"
     id="rect3118-5"
     width="1.4148581"
     height="4.1276436"
     x="82.36097"
     y="11.929084" /><g
     inkscape:groupmode="layer"
     id="layer7"
     inkscape:label="Layer 4"
     transform="translate(0.00103354,-26.950277)"><path
       id="path1702"
       style="display:inline;fill:#ffffff;fill-opacity:1;stroke:none;stroke-width:0.264583;stroke-opacity:1"
       d="m 56.14541,27.082585 c -1.098854,2.12e-4 -2.195289,0.0023 -2.930054,0.0062 -1.473721,0.05049 -1.503906,0.122937 -1.516699,1.414902 -0.01564,1.391625 -0.0155,4.159271 -0.0155,5.542814 0,1.38354 2.68e-4,1.383513 0.0083,1.383378 0.008,-1.34e-4 0.02321,-3.87e-4 1.412317,-5.17e-4 1.389106,-10e-5 4.151619,-3.34e-4 5.546949,-0.0041 1.395328,-0.0038 1.423672,-0.01132 1.558561,-0.04237 0.134889,-0.03105 0.376377,-0.0856 0.633553,-0.210323 0.257176,-0.124723 0.530269,-0.319289 0.709517,-0.580326 0.179247,-0.261037 0.264575,-0.588663 0.307475,-0.904338 0.04293,-0.315673 0.04311,-0.619655 -0.0036,-0.935343 -0.04673,-0.315691 -0.140351,-0.643067 -0.288355,-0.869198 -0.148004,-0.226132 -0.350347,-0.350866 -0.537435,-0.436666 -0.187089,-0.0858 -0.358531,-0.132366 -0.307991,-0.245463 0.05054,-0.113096 0.323205,-0.292797 0.521932,-0.577225 0.198727,-0.28443 0.323466,-0.673942 0.366386,-1.083138 0.04291,-0.409198 0.0039,-0.838171 -0.05994,-1.163754 -0.181354,-1.175532 -1.531491,-1.289215 -2.461348,-1.289843 -0.744141,-0.0031 -1.845153,-0.0049 -2.944007,-0.0047 z m 0.889352,1.998327 c 0.259438,-6.1e-5 0.500395,3.34e-4 0.701249,10e-4 0.803412,0.0028 0.968784,0.0086 1.099674,0.07493 0.13089,0.06629 0.22748,0.192759 0.28112,0.341581 0.05364,0.148822 0.06459,0.319821 0.02636,0.47749 -0.03823,0.157669 -0.125812,0.302199 -0.185002,0.383439 -0.05919,0.08124 -0.09031,0.09952 -0.889868,0.108521 -0.799561,0.009 -2.367799,0.0088 -3.169832,0.0088 -0.802038,0 -0.837712,2.11e-4 -0.855762,-0.203605 -0.01805,-0.203817 -0.01809,-0.61189 -0.01809,-0.815971 0,-0.204081 3.4e-5,-0.204231 0.0041,-0.233061 0.0041,-0.02882 0.01243,-0.08671 0.737423,-0.115755 0.543747,-0.02182 1.490278,-0.02721 2.268596,-0.02739 z m -0.663526,2.907316 c 0.720696,0 1.363801,4.01e-4 1.768368,0.0031 0.404566,0.0027 0.569842,0.0081 0.700732,0.07441 0.13089,0.06629 0.22747,0.192757 0.28112,0.341581 0.05364,0.148822 0.06459,0.319822 0.02635,0.47749 -0.03823,0.157669 -0.125295,0.3022 -0.184485,0.38344 -0.05919,0.08124 -0.09031,0.09952 -0.889868,0.10852 -0.799562,0.009 -2.367798,0.0088 -3.169833,0.0088 -0.802039,0 -0.838228,2.13e-4 -0.856278,-0.203605 -0.01805,-0.203817 -0.01757,-0.611888 -0.01757,-0.815971 0,-0.204081 -4.83e-4,-0.204231 0.0036,-0.233061 0.0041,-0.02883 0.01283,-0.08675 0.415996,-0.115755 0.403162,-0.02902 1.201149,-0.02894 1.921846,-0.02894 z"
       sodipodi:nodetypes="sccssccsssccsssssccsscccsssssssccccsscsssssssccss" /><rect
       style="fill:#ffffff;stroke-width:0.71531"
       id="rect415"
       width="2.7225542"
       height="1.7507161"
       x="51.697792"
       y="27.095779"
       ry="0" /></g><g
     inkscape:groupmode="layer"
     id="layer8"
     inkscape:label="Layer 5"
     transform="translate(0.00103354,-26.950277)"><path
       id="path2744"
       style="display:inline;fill:#ffffff;fill-opacity:1;stroke:none;stroke-width:0.264583;stroke-opacity:1"
       d="m 67.254293,29.601294 c -0.800605,-0.0013 -1.74562,0.01343 -2.301668,0.02377 -0.741398,0.01377 -0.791044,0.01914 -0.920875,0.03824 -0.129829,0.0191 -0.33967,0.05212 -0.516247,0.151412 -0.176577,0.09929 -0.319483,0.264631 -0.479041,0.485241 -0.159557,0.220611 -0.335739,0.49634 -0.437699,0.937411 -0.101959,0.44107 -0.129562,1.0478 -0.115755,1.554944 0.01381,0.507144 0.06898,0.914843 0.21239,1.267623 0.143412,0.352779 0.374778,0.650173 0.661458,0.865063 0.286681,0.214891 0.628742,0.347327 1.598869,0.413411 0.970128,0.06608 2.568219,0.06617 3.47214,0.01654 0.90392,-0.04964 1.113517,-0.149035 1.322916,-0.319877 0.209399,-0.170843 0.419104,-0.41333 0.567924,-0.779798 0.148819,-0.366467 0.236654,-0.857169 0.269751,-1.331184 0.0331,-0.474017 0.01116,-0.931398 -0.06046,-1.358574 -0.07162,-0.427176 -0.192678,-0.823674 -0.385506,-1.121378 -0.192828,-0.297705 -0.457683,-0.496187 -0.733289,-0.625802 -0.275606,-0.129615 -0.562203,-0.19048 -1.422135,-0.209806 -0.214984,-0.0048 -0.465904,-0.0068 -0.732772,-0.0072 z m -2.498039,1.689303 h 3.525366 v 2.286165 h -3.525366 z" /></g><g
     inkscape:groupmode="layer"
     id="layer8-8"
     inkscape:label="Layer 5"
     transform="translate(-5.4560825,-38.866364)"><path
       id="path2744-9"
       style="display:inline;fill:#ffffff;fill-opacity:1;stroke:none;stroke-width:0.201956;stroke-opacity:1"
       d="m 53.336964,50.365679 c -0.594096,-9.97e-4 -1.295353,0.01054 -1.707971,0.01867 -0.550162,0.01077 -0.587002,0.01503 -0.683345,0.03001 -0.09634,0.015 -0.252054,0.04092 -0.383085,0.118881 -0.13103,0.07797 -0.237075,0.20778 -0.355475,0.380993 -0.118402,0.173214 -0.249138,0.389705 -0.3248,0.736017 -0.07566,0.34631 -0.09614,0.822691 -0.0859,1.22088 0.01031,0.398188 0.0512,0.718296 0.157606,0.995285 0.106424,0.276989 0.278108,0.51049 0.49084,0.679213 0.212733,0.168724 0.466562,0.272707 1.186454,0.324593 0.719891,0.05188 1.905768,0.05196 2.57653,0.01298 0.67076,-0.03897 0.826294,-0.117015 0.981682,-0.251153 0.155385,-0.13414 0.310998,-0.324531 0.421432,-0.612266 0.110432,-0.287737 0.175611,-0.673015 0.20017,-1.045193 0.02457,-0.372179 0.0083,-0.731297 -0.04486,-1.066697 -0.05316,-0.335402 -0.142977,-0.646716 -0.286069,-0.880461 -0.143088,-0.233746 -0.339626,-0.389587 -0.544141,-0.491355 -0.204516,-0.101775 -0.417189,-0.149556 -1.055308,-0.164731 -0.159529,-0.0038 -0.345728,-0.0054 -0.54376,-0.0057 z m -1.853692,1.326373 H 54.0993 v 1.795005 h -2.616028 z" /></g><g
     inkscape:groupmode="layer"
     id="layer15"
     inkscape:label="Layer 11"
     transform="translate(0.00103354,-26.950277)"><path
       style="fill:#ffffff;fill-opacity:1;stroke:none;stroke-width:0.264583;stroke-opacity:1"
       d="m 51.016741,43.135631 v -4.712297 h 2.338607 l 1.438246,2.923262 1.403164,-2.888181 h 2.549084 v 4.712295 h -1.625333 v -3.390982 l -1.753957,3.37929 h -1.040681 l -1.800727,-3.49622 0.03307,3.478263 z"
       id="path3193"
       sodipodi:nodetypes="cccccccccccccc" /></g><g
     inkscape:groupmode="layer"
     id="layer16"
     inkscape:label="Layer 12"
     transform="translate(0.00103354,-26.950277)"><path
       id="path3196"
       style="display:inline;fill:#ffffff;fill-opacity:1;stroke:none;stroke-width:0.264583;stroke-opacity:1"
       d="m 59.770512,38.412642 c -0.468693,0.0063 -0.472377,0.08804 -0.47439,0.763261 -0.0023,0.771682 -0.002,2.318965 -0.0057,3.106271 -0.0037,0.787306 -0.01139,0.814763 -0.01499,0.828373 -0.0036,0.01365 -0.0035,0.0137 0.0093,0.0186 0.01283,0.0049 0.03808,0.01435 0.05736,0.02015 0.01928,0.0058 0.03266,0.0078 0.223242,0.0078 0.190579,-1e-4 0.558172,-0.0018 0.775664,-0.0057 0.217495,-0.0039 0.284559,-0.0098 0.313159,-0.203605 0.02861,-0.193793 0.0191,-0.575752 0.0124,-0.766878 -0.0067,-0.191126 -0.01035,-0.191203 0.500228,-0.191203 0.510578,0 1.535639,-3.1e-5 2.135787,-0.06046 0.600149,-0.06043 0.775216,-0.181248 0.954464,-0.374138 0.179248,-0.192889 0.362343,-0.457835 0.457853,-0.753959 0.09551,-0.296125 0.103652,-0.623465 0.06666,-0.950846 -0.03699,-0.327382 -0.11917,-0.655056 -0.241846,-0.890902 -0.122677,-0.235846 -0.285753,-0.379886 -0.468705,-0.452685 -0.182953,-0.07276 -0.384868,-0.07362 -1.18184,-0.07752 -0.796974,-0.0039 -2.189312,-0.01082 -2.887679,-0.01602 -0.08729,-6.55e-4 -0.164038,-0.0014 -0.230994,-5.17e-4 z m 0.84646,1.297079 h 2.689241 v 0.958598 h -2.689241 z" /></g><path
     style="fill:#ffffff;fill-opacity:1;stroke:none;stroke-width:0.264583;stroke-opacity:1"
     d="m 73.760741,11.554908 v 4.60706 h 1.426552 v -3.320825 l 2.584161,3.355903 h 2.128134 v -4.65383 h -1.46163 v 3.227279 L 76.06427,11.531524 Z"
     id="path4888" /></svg>
